<?xml version="1.0" encoding="UTF-8"?>
<svg id="_レイヤー_2" data-name="レイヤー 2" xmlns="http://www.w3.org/2000/svg" viewBox="0 0 197.69 62.8">
  <defs>
    <style>
      .cls-1 {
        stroke-width: .91px;
      }

      .cls-1, .cls-2 {
        fill: #fff;
      }

      .cls-1, .cls-3, .cls-4, .cls-5, .cls-6 {
        stroke: #fff;
      }

      .cls-1, .cls-3, .cls-7, .cls-5, .cls-6 {
        stroke-miterlimit: 10;
      }

      .cls-3, .cls-4, .cls-7, .cls-5 {
        stroke-linecap: round;
      }

      .cls-3, .cls-4, .cls-7, .cls-5, .cls-6 {
        fill: none;
      }

      .cls-4 {
        stroke-linejoin: round;
      }

      .cls-4, .cls-7, .cls-5 {
        stroke-width: 2px;
      }

      .cls-7 {
        stroke: #fffefd;
      }
    </style>
  </defs>
  <g id="_レイヤー_1-2" data-name="レイヤー 1">
    <g>
      <path class="cls-5" d="m64.22,15.27c1.43,6.25-4.92,11.67-12.96,11.67v5.49c0,.17-.18.31-.41.31H18.34c-.22,0-.41-.14-.41-.31v-5.49c-8.04,0-14.39-5.42-12.96-11.67,1.11-4.86,7.04-8.36,13.6-8.13.32.01.63.03.94.06,3.19-3.73,8.75-6.21,15.08-6.21s11.9,2.47,15.08,6.21c.31-.03.62-.05.94-.06,6.55-.24,12.48,3.26,13.6,8.13Z"/>
      <circle class="cls-1" cx="41.49" cy="43.39" r="2.25"/>
      <line class="cls-4" x1="34.51" y1="36.78" x2="34.51" y2="48.44"/>
      <path class="cls-5" d="m28.73,50.03c.03,2.96,2.65,5.34,5.87,5.34s5.84-2.39,5.87-5.34"/>
      <path class="cls-7" d="m4.56,40.26c4.09,14.77,13.35,19.21,20.06,21.54"/>
      <ellipse class="cls-3" cx="3.41" cy="46.2" rx="1.66" ry="3.13" transform="translate(-39.71 29.28) rotate(-64.35)"/>
      <ellipse class="cls-3" cx="6" cy="51.67" rx="1.66" ry="3.13" transform="translate(-45.75 46.41) rotate(-77.58)"/>
      <ellipse class="cls-3" cx="9.78" cy="56.19" rx="1.66" ry="3.13" transform="translate(-46.95 62.09) rotate(-86.07)"/>
      <ellipse class="cls-3" cx="9.38" cy="43.8" rx="3.13" ry="1.66" transform="translate(-34.17 33.3) rotate(-64.35)"/>
      <ellipse class="cls-3" cx="12.19" cy="48.68" rx="3.13" ry="1.66" transform="translate(-36.06 34.89) rotate(-60)"/>
      <ellipse class="cls-3" cx="15.45" cy="52.54" rx="3.13" ry="1.66" transform="translate(-38.24 41.72) rotate(-62.22)"/>
      <path class="cls-5" d="m64.4,39.33c-4.09,14.77-13.35,19.21-20.06,21.54"/>
      <ellipse class="cls-3" cx="65.55" cy="45.27" rx="3.13" ry="1.66" transform="translate(-13.14 32.83) rotate(-25.65)"/>
      <ellipse class="cls-3" cx="62.96" cy="50.74" rx="3.13" ry="1.66" transform="translate(-9.44 14.73) rotate(-12.42)"/>
      <ellipse class="cls-3" cx="59.18" cy="55.25" rx="3.13" ry="1.66" transform="translate(-3.65 4.18) rotate(-3.93)"/>
      <ellipse class="cls-3" cx="59.58" cy="42.87" rx="1.66" ry="3.13" transform="translate(-12.69 30.01) rotate(-25.65)"/>
      <ellipse class="cls-3" cx="56.77" cy="47.75" rx="1.66" ry="3.13" transform="translate(-16.27 34.78) rotate(-30)"/>
      <ellipse class="cls-3" cx="53.51" cy="51.61" rx="1.66" ry="3.13" transform="translate(-17.89 30.89) rotate(-27.78)"/>
      <circle class="cls-1" cx="26.69" cy="43.39" r="2.25"/>
      <ellipse class="cls-6" cx="19.84" cy="13.01" rx="1.06" ry="5.85"/>
      <ellipse class="cls-6" cx="49.84" cy="13.01" rx="1.06" ry="5.85"/>
      <g>
        <path class="cls-2" d="m101.58,25.08c-.9,0-1.43-.54-1.43-1.44v-6.09c0-.9.54-1.44,1.43-1.44h2.02c.8,0,1.45.18,1.94.52.59.41.9,1.06.9,1.88,0,.53-.15,1.01-.46,1.42-.08.1-.16.2-.25.29.17.11.31.25.44.4.39.44.59,1,.59,1.66,0,.92-.31,1.64-.91,2.14-.54.44-1.27.66-2.17.66h-2.11Zm.23-1.58h1.74c1.37,0,1.56-.62,1.56-1.23,0-.4-.12-.68-.39-.87-.27-.19-.66-.28-1.16-.28h-1.74v2.38Zm1.7-3.95c.42,0,.75-.09.97-.28.12-.1.29-.29.29-.71,0-.3,0-.85-1.22-.85h-1.74s-.07,0-.07,0l.05,1.83h1.71Z"/>
        <path class="cls-2" d="m109.67,25.22c-.58,0-1.08-.12-1.5-.37-.62-.36-.95-.97-.95-1.75s.3-1.77,1.75-2.29c.56-.19,1.29-.3,2.24-.34-.02-.25-.14-.55-.97-.55-.58,0-1.15.14-1.71.43-.12.06-.24.09-.35.09-.47,0-.79-.32-.79-.79,0-.31.16-.56.43-.7.76-.38,1.58-.57,2.44-.57.74,0,1.34.17,1.78.49.52.39.8.97.8,1.68v3.74c0,.48-.32.81-.81.81-.3,0-.54-.12-.68-.33-.51.29-1.07.44-1.69.44Zm1.55-3.24c-.66.03-1.16.1-1.51.21-.75.23-.85.6-.85.89,0,.25,0,.6.84.6.56,0,1.06-.2,1.51-.61v-1.09Z"/>
        <path class="cls-2" d="m118.74,25.11c-.28,0-.52-.13-.68-.36l-1.77-2.43-.71.62v1.36c0,.49-.33.82-.82.82s-.82-.33-.82-.82v-7.68c0-.5.33-.83.82-.83s.82.33.82.83v4.22l2.51-2.2c.15-.13.33-.2.54-.2.48,0,.81.32.81.81,0,.16-.05.39-.27.59l-1.66,1.42,1.9,2.54c.11.14.17.31.17.49,0,.5-.33.83-.83.83Z"/>
        <path class="cls-2" d="m123.06,25.2c-.93,0-1.68-.32-2.24-.94-.54-.6-.81-1.43-.81-2.47s.29-1.89.86-2.51c.56-.6,1.3-.9,2.2-.9s1.6.29,2.11.87c.43.47.64,1.03.64,1.67,0,.84-.5,1.34-1.33,1.34h-2.83c.05.4.18.71.37.93.25.3.58.43,1.02.43.48,0,.89-.2,1.25-.6.15-.17.37-.27.6-.27.48,0,.81.33.81.81,0,.2-.07.39-.2.54-.65.72-1.48,1.08-2.47,1.08Zm1.12-4.44c-.03-.19-.11-.36-.25-.5-.2-.21-.5-.32-.89-.32s-.71.12-.95.36c-.12.12-.21.27-.29.45h2.37Z"/>
        <path class="cls-2" d="m127.68,25.11c-.49,0-.82-.33-.82-.82v-5.02c0-.48.33-.81.82-.81.32,0,.58.14.71.38.48-.36.99-.45,1.41-.45.38,0,.74.09,1.09.26.3.15.47.42.47.73,0,.49-.33.82-.82.82-.12,0-.24-.04-.37-.11-.14-.08-.29-.12-.45-.12-.28,0-.52.11-.74.33-.2.21-.36.48-.47.82v3.16c0,.49-.33.82-.81.82Z"/>
        <path class="cls-2" d="m132.16,26.52c-.47,0-.79-.31-.79-.77s.32-.8.79-.8h.51c.43,0,.62-.08.7-.13.06-.04.17-.14.31-.4l-2.18-4.8c-.05-.09-.08-.21-.08-.34,0-.49.33-.82.82-.82.33,0,.6.18.74.49l1.56,3.51,1.51-3.5c.14-.32.42-.5.76-.5.48,0,.81.33.81.82,0,.11-.02.21-.06.31l-2.36,5.37c-.25.57-.57.97-.94,1.21-.37.24-.86.35-1.49.35h-.6Z"/>
        <path class="cls-2" d="m141.37,25.19c-.63,0-1.17-.17-1.58-.49-.43-.34-.65-.8-.65-1.32,0-.48.19-.9.55-1.25.12-.12.28-.23.46-.35-.04-.06-.08-.11-.12-.16-.21-.31-.31-.65-.31-.99,0-.5.22-.93.63-1.25.36-.27.78-.41,1.25-.41s.87.13,1.19.38c.38.3.59.73.59,1.26,0,.31-.1.76-.58,1.19-.11.09-.25.19-.42.29.16.15.33.31.53.49.02-.11.04-.22.05-.33.03-.36.31-.62.68-.62.2,0,.38.08.51.23.13.15.19.33.18.52-.05.45-.15.86-.31,1.2l.33.29c.15.14.24.33.24.53,0,.41-.29.7-.7.7-.17,0-.33-.06-.46-.17l-.28-.25c-.48.35-1.07.52-1.78.52Zm-.26-2.41c-.21.12-.32.21-.39.27-.16.14-.17.25-.17.33,0,.11.03.2.16.3.16.11.38.17.68.17.27,0,.5-.04.71-.13-.34-.32-.67-.63-.98-.93Zm.5-2.45c-.17,0-.3.04-.41.13-.1.08-.11.14-.11.19,0,.1.04.2.13.3.03.04.09.1.17.18.24-.13.37-.21.43-.25.08-.06.18-.16.18-.25,0-.15-.05-.2-.07-.21-.03-.02-.11-.09-.31-.09Z"/>
        <path class="cls-2" d="m149.68,25.17c-1.16,0-2.08-.42-2.75-1.25-.64-.8-.96-1.91-.96-3.32s.36-2.49,1.06-3.33c.69-.82,1.59-1.23,2.68-1.23,1.37,0,2.41.62,3.01,1.8.06.11.09.24.09.38,0,.5-.34.84-.84.84-.33,0-.6-.17-.76-.47-.31-.65-.79-.96-1.5-.96-.57,0-1.03.22-1.4.67-.44.54-.67,1.31-.67,2.3s.2,1.8.61,2.31c.35.44.81.66,1.43.66.39,0,.72-.08.96-.23.25-.16.49-.42.71-.78.16-.26.42-.41.72-.41.23,0,.43.08.59.24.16.16.25.37.25.6,0,.15-.04.29-.13.43-.36.58-.78,1.01-1.24,1.29-.51.31-1.14.46-1.85.46Z"/>
        <path class="cls-2" d="m155.86,25.22c-.58,0-1.08-.12-1.5-.37-.62-.36-.95-.97-.95-1.75s.3-1.77,1.75-2.29c.56-.19,1.29-.3,2.24-.34-.02-.25-.14-.55-.97-.55-.58,0-1.15.14-1.71.43-.12.06-.24.09-.35.09-.47,0-.79-.32-.79-.79,0-.31.16-.56.43-.7.76-.38,1.58-.57,2.44-.57.74,0,1.34.17,1.78.49.52.39.8.97.8,1.68v3.74c0,.48-.32.81-.81.81-.3,0-.54-.12-.68-.33-.51.29-1.07.44-1.69.44Zm1.55-3.24c-.66.03-1.16.1-1.51.21-.75.23-.85.6-.85.89,0,.25,0,.6.84.6.56,0,1.06-.2,1.51-.61v-1.09Z"/>
        <path class="cls-2" d="m161.49,25.11c-.49,0-.82-.33-.82-.82v-4.22h-.64c-.46,0-.78-.32-.78-.8s.32-.77.78-.77h.64v-.34c0-.74.17-1.3.49-1.69.37-.44.94-.66,1.7-.66h.45c.47,0,.79.32.79.79s-.32.79-.79.79h-.4c-.36,0-.46.09-.49.11-.03.03-.13.18-.13.64v.36h.99c.46,0,.79.32.79.77s-.32.8-.79.8h-.99v4.22c0,.49-.33.82-.82.82Z"/>
        <path class="cls-2" d="m167.4,25.2c-.93,0-1.68-.32-2.24-.94-.54-.61-.81-1.44-.81-2.47s.29-1.89.86-2.51c.56-.6,1.3-.9,2.2-.9s1.6.29,2.11.87c.43.47.64,1.04.64,1.67,0,.84-.5,1.34-1.33,1.34h-2.83c.05.4.18.71.37.93.25.29.58.43,1.02.43.49,0,.9-.2,1.25-.6.16-.17.37-.27.61-.27.48,0,.81.33.81.81,0,.2-.07.39-.2.54-.65.72-1.48,1.08-2.46,1.08Zm1.13-4.44c-.03-.19-.11-.35-.25-.5-.2-.21-.5-.32-.89-.32s-.71.12-.95.36c-.12.12-.21.28-.29.45h2.37Z"/>
      </g>
      <g>
        <path class="cls-2" d="m93.26,56.52c-4.15,0-8.3-.94-11.69-2.65-.9-.39-1.64-.82-2.22-1.29-.55-.38-.87-.99-.89-1.72-.02-.58.19-1.14.59-1.58.41-.44.97-.7,1.57-.71h0c.62,0,1.02.2,1.3.38l.48.29c.42.26.82.51,1.23.71,2.76,1.39,6.15,2.15,9.57,2.15.22,0,.43,0,.65,0,1.67-.05,3.39-.3,5.26-.76.24-.09.46-.09.58-.1h0c1.28,0,2.25.95,2.29,2.17.03,1.03-.61,1.87-1.65,2.2-2.15.7-4.88.87-6.32.91-.25,0-.5,0-.75,0Zm4.8-14.32c-1.12,0-2.11-.91-2.22-2.01-.69-.71-4.81-1.8-6.65-2.06-.84-.14-1.67-.24-2.5-.34-.46-.05-.91-.11-1.36-.17-1.18-.2-1.94-1.03-1.97-2.12-.02-.61.22-1.21.64-1.64.41-.42.95-.65,1.52-.65h.13c.21,0,14.47.6,14.64,6.7.02.6-.2,1.17-.6,1.6-.41.43-.96.67-1.57.69h-.06Z"/>
        <path class="cls-2" d="m116.92,58.71c-2,0-3.07-1.52-3.67-2.98-1.06,1.22-2.4,1.89-3.9,1.93h-.18c-2.76,0-4.53-1.81-4.62-4.74-.04-1.49.76-3.66,2.05-5.54.87-1.28,2.67-3.42,4.88-3.49h.1c.21,0,.41.02.6.05-.03-.58-.08-1.13-.15-1.67-1.37-.06-3.12-.15-4.19-.36-.91-.16-1.53-.86-1.56-1.8-.01-.51.16-.99.5-1.35.34-.36.8-.56,1.32-.57h.22s.08,0,.08,0c.91.11,1.84.2,2.78.25-.06-.24-.1-.43-.1-.6-.01-.51.16-.99.5-1.36.34-.37.81-.58,1.31-.6h0c.85,0,1.52.46,1.84,1.22.19.49.32.97.44,1.44.22,0,.45,0,.68-.02.8-.02,1.65-.07,2.46-.25.2-.07.37-.07.47-.08h0c1.1,0,1.93.8,1.96,1.82.02.85-.5,1.58-1.34,1.86-.85.29-2.16.38-3.6.42.08.8.13,1.6.15,2.38.03.99.04,2.17-.09,3.38,0,.15-.05.5-.1.85-.04.28-.08.55-.08.69,0,.16.06.41.11.65.03.14.06.28.08.41l.06.31c.51,2.86.94,3.7,1.15,3.94.83-.07,2.25-.62,4.45-2.69.32-.35.76-.54,1.28-.56h0c1.07,0,1.92.84,1.95,1.88.01.46-.13.87-.44,1.25-.41.48-.87.87-1.19,1.12-1.21,1-3.62,2.7-6.1,2.77h-.11Zm-5.61-10.92c-.77.51-2.17,2.45-2.63,3.62-.24.53-.37,1.04-.36,1.41.03,1.08.35,1.08.85,1.08,1.69-.05,2.45-3.01,2.69-4.2-.23-1.07-.42-1.63-.55-1.91Zm12.23,1.97c-.71,0-1.37-.42-1.7-1.11-.36-.83-.92-2.88-.95-3.84-.03-1.06.78-1.95,1.81-1.98h0c1.16,0,1.92.79,1.96,1.97,0,.36.4,1.76.63,2.34.07.18.13.41.14.65.01.5-.18,1-.54,1.38-.35.37-.82.58-1.31.6h-.05Z"/>
        <path class="cls-2" d="m134.59,59.65c-.5,0-.98-.2-1.36-.56-1.59-1.56-3.75-5.03-4.29-7.35l-.02-.11c-.02-.07-.04-.17-.04-.28-.01-.49.18-.98.52-1.35.35-.37.82-.58,1.33-.59h0c.92,0,1.68.6,1.89,1.46.58,2.14,2.11,4.14,3.38,5.64.32.36.48.76.49,1.21.03,1-.83,1.89-1.85,1.92h-.05Zm2.87-6.98c-1.02,0-1.87-.83-1.9-1.85-.01-.52.16-.96.53-1.35,0,0,0,0,0,0-.01,0,.12-.3.09-1.31-.01-.48-.07-.96-.14-1.46-.4-.02-.81-.05-1.21-.07-1.01-.06-1.97-.13-2.94-.13-.19,0-.38,0-.57,0h0c-1.11,0-1.95-.8-1.98-1.82-.01-.51.15-.97.49-1.33.37-.39.92-.61,1.54-.63.21,0,.43,0,.64,0,1,0,2,.06,2.97.12l.31.02c-.21-.87-.43-1.75-.66-2.61-.14,0-.29,0-.43,0-.21,0-.42,0-.63,0-.67.02-1.26.07-1.78.16h-.02c-.07.02-.17.04-.29.05h0c-1.08,0-1.93-.83-1.96-1.85-.02-.9.58-1.67,1.46-1.89.78-.19,1.62-.22,2.35-.24.09,0,.19,0,.28,0,0-.07-.01-.13-.01-.2-.01-.51.17-.99.52-1.37.35-.38.83-.6,1.33-.61h0c.94,0,1.67.59,1.89,1.46l.21.83h.19c1.1.06,2.23.12,3.35.31.92.17,1.55.9,1.58,1.81.01.51-.18,1.02-.54,1.4-.34.36-.8.57-1.28.58h-.16s-.14-.03-.14-.03l-.18-.02c-.61-.06-1.19-.12-1.78-.17.22.85.44,1.72.64,2.58.23,0,.46,0,.69,0,.29,0,.57,0,.85-.01h0c1.05,0,1.89.83,1.92,1.85.01.51-.18,1.01-.52,1.38-.34.36-.8.56-1.3.58-.24,0-.48,0-.72,0-.09,0-.17,0-.26,0,.05.39.08.8.09,1.21,0,.21.02,1.33-.28,2.42-.51,1.87-1.59,2.18-2.19,2.19h-.05Zm6.65-14.44c-1.62,0-2.88-2.28-2.91-3.47-.03-1.03.82-1.92,1.85-1.95h0c.59,0,1.1.24,1.46.64,0-.07-.01-.14-.02-.22-.03-1.03.82-1.92,1.85-1.95h0c.65,0,1.23.3,1.57.77.05.02.1.04.15.07.5.22,1.42.64,1.46,1.84.03,1.05-.8,1.92-1.85,1.95h-.05c-.32,0-.63-.09-.95-.26-.1-.06-.21-.11-.33-.17-.27-.13-.61-.3-.93-.54.28.3.58.72.6,1.34.01.49-.18.99-.53,1.35-.35.37-.83.59-1.32.6h-.05Z"/>
        <path class="cls-2" d="m157.5,58.12c-.89,0-1.64-.72-1.66-1.61-.01-.5.18-.93.57-1.3l.33-.3c.23-.21.46-.41.67-.65,1.24-1.42,2.07-3.51,2.03-5.07-.05-1.72-.76-2.83-2.08-3.28.08.32.13.64.14.93.03,1.05-.13,2.1-.48,3.12-.69,1.99-2.69,4.97-5.35,5.05h-.13c-2.44,0-4.41-2.03-4.48-4.61-.06-2.25.86-4.3,2.61-5.8,1.56-1.34,3.71-2.14,5.89-2.2h.28c4.08,0,6.78,2.63,6.9,6.7.08,3.03-1.73,6.76-4.22,8.68-.24.2-.6.34-.97.35h-.05Zm-3.69-12.1c-1.84.61-3.52,2.09-3.46,4.28.02.69.43,1.39,1.18,1.39.1,0,.35-.08.77-.42,1.16-.96,1.92-2.71,1.88-4.34,0-.27-.16-.63-.37-.91Z"/>
        <path class="cls-2" d="m173.87,58.22c-3.67,0-5.1-4.27-5.21-8.26-.02-.77.02-1.54.09-2.29-.21.04-.42.08-.6.13-.22.09-.42.09-.51.09h0c-1.08,0-1.94-.83-1.97-1.85-.02-.88.52-1.62,1.39-1.9.75-.2,1.51-.32,2.21-.41.12-.7.26-1.42.41-2.17-.15.02-.29.04-.41.04h0c-1.09,0-1.92-.81-1.95-1.85-.02-.87.5-1.6,1.33-1.87.61-.21,1.32-.31,1.97-.36v-.04c.22-.79.43-1.61.72-2.39.29-.77.96-1.25,1.73-1.27h0c1.07,0,1.92.81,1.95,1.82,0,.21-.03.44-.37,1.63.03,0,.06,0,.09,0,.95,0,1.56.07,1.97.21.73.22,1.26.92,1.29,1.74.01.5-.18,1-.52,1.36-.35.37-.82.58-1.32.59h-.03c-.24,0-.38-.02-.52-.06-.13-.03-.34-.05-.64-.05-.16,0-.33,0-.49.01,0,0-.62.02-.81.03-.17.74-.33,1.48-.47,2.23.6-.04,1.18-.08,1.79-.1.21,0,.48-.01.77-.01,1.1,0,1.87.07,2.36.21.82.23,1.38.95,1.41,1.78.03,1.05-.8,1.92-1.85,1.95h-.04c-.19,0-.33-.01-.52-.07-.27-.05-.68-.09-1.22-.09-.26,0-.51,0-.76.01-.79.02-1.61.07-2.53.16-.1.89-.18,1.79-.16,2.67.07,2.36.76,4.6,1.43,4.6.33-.05,1.16-1.02,1.7-2.15.34-.68.95-1.08,1.66-1.1h0c1.09,0,1.92.81,1.95,1.85,0,.3-.05.58-.17.84-.64,1.61-2.6,4.26-5.04,4.33h-.13Z"/>
        <path class="cls-2" d="m191.86,57.17c-1.03,0-1.87-.8-1.9-1.82,0-.35.1-.64.17-.83,1.35-2.94,2.44-6.96,3.27-12l.05-.31c.11-.69.22-1.36.3-2.06l.04-.36c.03-.32.06-.62.12-.92.16-.92.89-1.58,1.83-1.61h0c.57,0,1.07.21,1.43.59.35.36.53.83.52,1.32v.05c-.19,5.04-1.83,11.05-3.31,15.03-.21.62-.48,1.37-.84,1.96-.27.41-.71.93-1.62.95h-.05Zm-5.19-7.42c-1.46,0-2.34-1.52-2.42-4.17-.07-2.66.83-7.14,2.26-9.31.38-.54.94-.84,1.55-.86h0c1.07,0,1.92.83,1.95,1.85,0,.34-.08.67-.26,1-.92,1.6-1.62,4.29-1.72,6.47.07-.01.15-.02.23-.02h0c1.11,0,1.95.81,1.98,1.85.01.54-.22,1.09-.62,1.44l-.18.16c-.92.82-1.81,1.57-2.72,1.59h-.05Z"/>
      </g>
    </g>
  </g>
</svg>